<svg xmlns="http://www.w3.org/2000/svg" viewBox="0 0 174 139">
	<g fill="#fff" fill-opacity=".05">
		<path d="M106.1 172.6c0 0 8.8-3.7 13.6-18.3 4.3 8.9 3.1 18 3.1 18C119 173.2 106.1 172.6 106.1 172.6z"/>
		<path d="M142.9 143.3c-25.7 3.5-30.1-50.3-30.1-50.3s8.6 27.6 27 26.6c19-1 13.6-30.2 13.6-30.2S171.8 139.4 142.9 143.3z"/>
		<path d="M24.7 131.1c-8.8 3-24.7 5.8-24.7 5.8s14.7-11.1 25.6-45.4l10.6 9.5 -2 6.6c0 0 5 7.2 6.3 12.1 0 0 6.9-13.3-0.7-27.7l-1.4 4 -4.1-3.7 -7.1-6.5c0 0 3.2-11.2 13.2-25l1 1.1 8.1 9.5 -2.5 4.1c0 0 5.6 5.9 10.3 13.1 0 0 2.5-12-1-25L52.8 67l-9-10.5C56.6 43.7 69 35.9 83.9 30.9c-0.9 1-1.8 2.1-2.6 3.2 -5.1 7.1-10.2 20-6 40.7 0.6 3.2 1.7 7.8 2.8 12.7 2.2 9.5 4.7 20.2 5.6 27 1.8 14.1 0.3 23.3-4.4 28.2 -3.3 3.4-8.6 4.9-16 4.7 0-1.2 0.1-2.3 0.1-3.4 0-9.9-2-17.4-2.1-17.8l-1.8-6.8 -3.1 6.4c-4.8 10.1-21.3 35.1-42.7 39.9 0 0 0 0 0 0C24.5 149.1 24.7 131.1 24.7 131.1z"/>
		<path d="M148.2 38.2c-0.1-0.5-0.2-0.9-0.2-1.4l24.7-4.9 -0.4-2.7 -25.5 3.2c-0.2-0.5-0.3-1-0.5-1.5l23.3-9.1 -0.9-2.6 -24.4 7.5c-1.4-2.4-3.1-4.2-4.6-4.8 -9.3 0.7-17.7 1.5-25.4 2.5l4.9-22.8h-2.7L109 25.1c-1.4 0.2-2.7 0.4-4.1 0.7l5.8-25.5H108l-8.6 26.6c-0.1 0-0.2 0-0.3 0 -5.2 1.8-10 5.4-13.5 10.3 -4.4 6.3-8.9 17.8-5.2 36.7 0.7 3.2 1.7 7.7 2.8 12.5 2.2 9.6 4.8 20.5 5.7 27.5 2 16 0.2 26.3-5.8 32.5 -4.8 5-12.3 7-22.8 6.1l-2.6-0.2 0.2-2.6c0.2-1.9 0.2-3.8 0.2-5.6 0-3.6-0.3-6.8-0.6-9.5 -5.8 9.6-16.3 23.1-29.7 31 22.8 0.5 44.8 4.6 54.7 5.9 1 0.1 1.9 0.2 2.9 0.3 0.3 0 0.5 0 0.8 0 0 0 0.2 0 0.2 0 2.3 0 4.5 0 6.5-0.3 0.1 0 0.1 0 0.2 0 0.3 0 0.6-0.1 0.8-0.1 12.7-2.2 23.7-11.6 20.7-33.3 -3.5-25.8-8-42.3-9.1-54.7 -1.4-15.1 11.7-38.5 35-28.1 0 0 3.2 2.8 7.5 12.6 0 0 1.6-5.6-0.7-16 1-2.9 1.4-5.9 1.3-8.9l25.4-1.1 0-2.8L148.2 38.2zM122.5 47.5c-8.2-0.6-16.9 2.1-22 5.7 -4 2.8-6.7 6.7-8.3 9.5 -0.2-0.2-1.6-10 6.5-15.5 5.1-3.4 19.3-4.5 25.4-1.3C126.3 47.1 124.5 47.7 122.5 47.5z"/>
	</g>
</svg>
