<svg xmlns="http://www.w3.org/2000/svg" viewBox="0 0 135 139">
	<g fill="#fff" fill-opacity=".05">
		<path d="M126.5 10.7c0 0-8.1 17.4-12.2 26 -20.2-9.3-46.6-10.6-68.8 2.6 -14.8 9.1-26.8 25.2-28 42.4 -0.4 11.5 4.6 24.1 2.9 35.7 -0.4 6.2-1.8 12.3-4.7 17.7C12 141.3 7.5 146.6 0.1 147c1.6-2.1 13.1-7.7 8.6-33.6C6.9 103.2-7.2 77.7 6.5 45.8 18.9 16.6 72.8-17.9 126.5 10.7"/>
		<path d="M64.7 61.9c7-2.5 14.8-2.6 22.2-0.9 14 2.5 24.5 10.9 29.6 23.4 5.3 13.1 9.2 23.7 18.4 34.9 0.3 0.3-14.3-2.1-14.3-2.5 3.6-26-21-27.1-27.8-17.3 5.1 5.6 13.9 8.5 20.6 7.4 -1.4 25.8 5.8 49.2 5.4 49.2 -5.9-0.8-32.7-16.6-40.5-23.4 -11.5 2.1-20.6 6.3-33.9 8.2 -0.4 0.1 2.4-9.8 2-14.8 0-13.6-10.4-26.3-3-43C47.8 72.9 54.5 65.6 64.7 61.9"/>
		<path d="M74.4 54c0.8 0 2 0.2 2 0.1 0.2-0.9 1-7.3 6.4-12 6.1-5.2 14.1-4.7 14-4.8 -8-2.4-16.2-2.6-21.9-2.1L74.4 54"/>
		<path d="M23.6 77.4c-1.2 7.7-1.3 14.9-0.6 18.7 0 0.1 1.2-6.6 4.9-10.3 3.3-3.2 7.4-3.9 8.9-3.8 0 0 0.7-2.5 0.6-2.5L23.6 77.4"/>
		<path d="M39 76c0.4-1 0.9-1.9 1.5-3.1l-14.2-5.5c-0.9 1.8-1.5 4.4-1.9 5.9L39 76"/>
		<path d="M42.5 70.6c0 0 2.3-2.9 2.3-2.9l-13-9.8c-1.4 1.7-2.5 3.6-3.3 5.6L42.5 70.6"/>
		<path d="M47.3 65.3c0.1-0.1 2.9-2.6 2.9-2.6L38.9 49.8c-2.5 2.2-3.3 3.2-4.9 5.1L47.3 65.3"/>
		<path d="M53.2 60.8c0 0.2 3.2-1.8 3.3-1.9l-8.4-15.2c-3.2 1.5-5.3 3.2-6.2 3.9L53.2 60.8"/>
		<path d="M59.4 57.4c4-1.4 4-1.4 4-1.3L58.6 39c-2.7 0.8-6.2 2.3-7.1 2.9L59.4 57.4"/>
		<path d="M66.4 55.1c0.1 0.1 3.6-0.8 3.6-0.8l0.4-18.6c-0.1 0.1-4.3 0.8-7.8 1.8L66.4 55.1"/>
	</g>
</svg>


